<svg width="24" height="24" viewBox="0 0 24 24" fill="none" xmlns="http://www.w3.org/2000/svg">
<path d="M18.7699 23.2263C17.6697 23.2263 16.568 23.2308 15.4678 23.2263C14.312 23.2203 13.5135 22.4308 13.509 21.2705C13.4999 19.0941 13.4999 16.9161 13.509 14.7397C13.5135 13.5329 14.306 12.7373 15.5083 12.7313C17.6727 12.7223 19.8356 12.7223 22.0001 12.7313C23.1949 12.7358 23.9919 13.5404 23.9949 14.7412C24.0024 16.9176 24.0009 19.0956 23.9949 21.272C23.9919 22.4278 23.1919 23.2203 22.0346 23.2248C20.9464 23.2293 19.8582 23.2248 18.7699 23.2248V23.2263ZM18.7669 21.0003C19.654 21.0003 20.5411 20.9928 21.4282 21.0048C21.6864 21.0078 21.7809 20.9208 21.7794 20.6596C21.7719 18.8854 21.7719 17.1097 21.7794 15.3356C21.7794 15.0534 21.6729 14.9738 21.4012 14.9753C19.639 14.9843 17.8768 14.9858 16.1147 14.9753C15.8205 14.9738 15.7184 15.0669 15.7199 15.3611C15.7289 17.1112 15.7304 18.8614 15.7184 20.6101C15.7169 20.9343 15.8445 21.0108 16.1402 21.0063C17.0153 20.9913 17.8904 21.0018 18.7639 21.0018L18.7669 21.0003Z" fill="black"/>
<path d="M0 17.9968C0 14.7232 2.7213 11.9929 5.98747 11.9883C9.24463 11.9838 12.005 14.7322 11.9824 17.9878C11.9584 21.314 9.36922 23.9318 5.97847 23.9573C2.68828 23.9813 0 21.266 0 17.9968ZM6.00398 21.7448C8.12189 21.5947 9.71745 20.1418 9.73696 18.0013C9.75647 15.9014 8.06185 14.2549 5.99798 14.2518C3.94612 14.2488 2.23048 15.8804 2.24699 17.9878C2.265 20.1823 3.90109 21.6112 6.00398 21.7448Z" fill="black"/>
<path d="M13.482 10.4708C12.0305 10.4708 10.5805 10.4678 9.12908 10.4708C8.69679 10.4708 8.32304 10.3448 8.00033 10.0521C7.54403 9.63929 7.36241 8.99837 7.6611 8.455C8.28252 7.32926 8.95046 6.22903 9.6079 5.12279C10.45 3.70585 11.301 2.29192 12.1476 0.877977C12.6939 -0.0346279 13.6141 -0.268783 14.3886 0.331615C14.5792 0.478713 14.7323 0.694856 14.8584 0.904996C16.3023 3.30209 17.7448 5.70068 19.1722 8.10677C19.7726 9.11995 19.3809 10.1481 18.3152 10.4168C18.1366 10.4618 17.9444 10.4648 17.7583 10.4663C16.3324 10.4708 14.9064 10.4678 13.4805 10.4678L13.482 10.4708ZM16.6911 8.21334C15.6254 6.44217 14.5942 4.73103 13.5015 2.91333C12.4148 4.71903 11.3791 6.43617 10.3089 8.21334H16.6911Z" fill="black"/>
</svg>
