<svg width="24" height="24" viewBox="0 0 24 24" fill="none" xmlns="http://www.w3.org/2000/svg">
<path d="M12.0151 0.0012886C14.9582 0.0012886 17.9012 -0.0038658 20.8442 0.006443C21.2685 0.006443 21.7083 0.0339331 22.1155 0.142176C23.1962 0.430822 23.9538 1.41531 23.983 2.54069C24.0054 3.42553 24.0054 4.31209 23.9847 5.19693C23.9624 6.14705 23.2425 6.82915 22.2976 6.83431C21.3338 6.83946 20.6122 6.14018 20.595 5.17287C20.5865 4.7021 20.5865 4.22962 20.595 3.75885C20.5985 3.52518 20.5126 3.42553 20.2703 3.42725C18.1846 3.4324 16.0989 3.4324 14.0132 3.42725C13.7933 3.42725 13.692 3.50285 13.7091 3.7262C13.7143 3.79665 13.7091 3.86881 13.7091 3.94097C13.7091 9.32732 13.7126 14.7119 13.7005 20.0983C13.7005 20.4952 13.8036 20.612 14.2022 20.6051C15.0011 20.5914 15.8051 20.588 16.5954 20.6807C16.9408 20.722 17.3205 20.9471 17.5713 21.2013C18.0764 21.7099 18.0798 22.3783 17.8324 23.0037C17.6091 23.5655 17.1658 23.9211 16.5199 23.9469C16.1213 23.9624 15.7227 23.9967 15.3224 23.9967C12.9944 24.0019 10.6648 24.0002 8.33682 23.9967C8.05163 23.9967 7.76643 23.9761 7.48295 23.9435C6.80948 23.8679 6.25455 23.4384 6.1068 22.8954C5.88517 22.0862 6.08275 21.2752 6.7253 20.9178C7.11357 20.7014 7.61353 20.6447 8.07224 20.6069C8.6684 20.557 9.27143 20.5811 9.87103 20.6C10.1786 20.6103 10.2954 20.5278 10.2954 20.1945C10.2868 14.7377 10.2868 9.28093 10.2954 3.82414C10.2954 3.53549 10.2249 3.42381 9.91226 3.42553C7.88326 3.43756 5.85425 3.43756 3.82696 3.42553C3.51771 3.42553 3.38542 3.50628 3.4026 3.83273C3.42494 4.28803 3.41635 4.74677 3.40432 5.2038C3.37855 6.14533 2.66728 6.82572 1.71377 6.83431C0.779155 6.8429 0.0352427 6.14705 0.0163443 5.20895C-0.00255419 4.30865 -0.00942636 3.40835 0.0197804 2.50976C0.0592953 1.26412 0.973294 0.260727 2.20685 0.0751683C2.52984 0.0270606 2.86142 0.00472487 3.18785 0.00472487C6.13085 -0.000429533 9.07386 0.0012886 12.0169 0.0012886H12.0151Z" fill="black"/>
</svg>
