<svg width="17" height="11" viewBox="0 0 17 11" fill="none" xmlns="http://www.w3.org/2000/svg">
<path d="M8.52715 0.00151622C10.7259 0.00151622 12.9246 -0.00189527 15.1216 0.00151622C16.261 0.0049277 17.1053 0.760572 16.9893 1.77037C16.9399 2.20022 16.7147 2.68636 16.4128 2.9951C14.2243 5.23815 12 7.44708 9.77575 9.65602C9.03205 10.3946 7.96084 10.3844 7.18814 9.61679C4.99285 7.44708 2.80438 5.26373 0.631266 3.06333C-0.368299 2.05011 -0.149964 0.675285 1.06794 0.168679C1.34427 0.0543943 1.67006 0.0117507 1.97539 0.0100449C4.15874 -0.00360101 6.34209 0.00151622 8.52715 0.00151622ZM8.46404 7.1247C9.98897 5.60147 11.5395 4.04924 13.032 2.55843H3.91312C5.44487 4.0953 6.98857 5.64582 8.46404 7.1247Z" fill="black"/>
</svg>
