<svg width="19" height="30" viewBox="0 0 36 57" fill="none" xmlns="http://www.w3.org/2000/svg">
<path d="M1.00452 7.40631C0.982545 3.61703 3.93986 0.974052 7.51676 1.00001C11.2299 1.03029 13.9543 3.60405 14.0334 7.30682C14.1081 10.8279 11.1684 13.8429 7.5607 13.791C3.97062 13.7434 1.0177 11.2042 1.00452 7.40631Z" fill="black"/>
<path d="M22.9887 7.14243C23.103 3.40506 26.1394 0.935112 29.5405 0.999997C33.4074 1.07786 36.1055 3.88089 35.9912 7.56635C35.8814 11.1004 32.867 13.9251 29.3823 13.8083C25.678 13.6872 22.8262 10.7154 22.9887 7.14243Z" fill="black"/>
<path d="M14.0245 29.0692C13.9367 32.6422 10.9002 35.5361 7.38486 35.3977C3.7069 35.2549 0.916565 32.3654 1.00006 28.8227C1.09233 25.0247 4.15071 22.5158 7.57821 22.5937C11.4232 22.6802 14.0509 25.4443 14.0201 29.0692H14.0245Z" fill="black"/>
<path d="M22.9844 50.4683C23.0283 46.7049 26.0032 44.1442 29.5054 44.1831C33.2844 44.2263 36.0176 46.9083 36.0001 50.6067C35.9825 54.171 32.9636 57.0736 29.4175 56.9957C25.7791 56.9178 22.9141 54.011 22.9844 50.4683Z" fill="black"/>
<path d="M22.9975 28.8572C23.1557 25.2064 26.0999 22.4077 29.646 22.5591C33.6755 22.7321 36.0484 25.8336 35.9781 29.1557C35.9078 32.6855 32.8758 35.5231 29.4043 35.4063C25.7395 35.2852 22.8437 32.3264 22.9931 28.8572H22.9975Z" fill="black"/>
<path d="M1.02641 50.3947C1.21536 46.7352 4.19464 43.9755 7.72321 44.1528C11.7791 44.3604 14.1036 47.5441 14.0026 50.8013C13.8927 54.3441 10.8343 57.1557 7.37606 56.9914C3.67173 56.8097 0.846244 53.8769 1.02641 50.3947Z" fill="black"/>
</svg>
