<svg width="24" height="24" viewBox="0 0 24 24" fill="none" xmlns="http://www.w3.org/2000/svg">
<path d="M12.0323 12.0392C11.5687 11.9218 11.1397 11.8691 10.7558 11.7065C7.57059 10.3532 4.3929 8.9819 1.21671 7.60755C0.0741793 7.11231 -0.330747 6.03752 0.290943 5.08015C0.476096 4.79564 0.79522 4.54426 1.10832 4.40728C4.27849 3.01637 7.4592 1.64956 10.6384 0.284248C11.5852 -0.122184 12.5276 -0.0800357 13.4729 0.329407C16.5798 1.67515 19.6928 3.00885 22.8028 4.34857C23.8294 4.78962 24.2539 5.76657 23.8204 6.69383C23.6066 7.15145 23.2107 7.41939 22.7696 7.61056C19.6627 8.9548 16.5558 10.2975 13.4398 11.6222C12.9882 11.8149 12.4929 11.9037 12.0323 12.0377V12.0392ZM20.873 5.95322C20.7571 5.89301 20.7134 5.86742 20.6682 5.84785C18.0039 4.70533 15.335 3.56882 12.6766 2.41275C12.2175 2.21254 11.8065 2.2005 11.3474 2.40221C9.6434 3.15185 7.92886 3.87741 6.21733 4.612C5.20877 5.04402 4.20022 5.47604 3.12543 5.93817C3.2865 6.03602 3.38133 6.11279 3.48971 6.15945C6.17518 7.31552 8.86515 8.46558 11.5491 9.62466C11.8577 9.75863 12.1377 9.76315 12.4493 9.62918C15.1227 8.47461 17.7991 7.33058 20.4741 6.18052C20.596 6.12784 20.7059 6.04956 20.876 5.95172L20.873 5.95322Z" fill="black"/>
<path d="M5.16964 11.0908C4.47419 11.3904 3.82239 11.6719 3.1721 11.9534C3.17963 11.9865 3.18716 12.0181 3.19619 12.0512C4.40043 12.569 5.60618 13.0869 6.81042 13.6032C8.33831 14.258 9.8692 14.9053 11.3896 15.5736C11.8246 15.7648 12.2099 15.7497 12.645 15.5601C15.2582 14.4221 17.8789 13.3066 20.4982 12.1837C20.6005 12.14 20.7014 12.0903 20.9196 11.9895C20.1775 11.6689 19.5197 11.3859 18.8619 11.1029C18.8634 11.0667 18.8649 11.0306 18.8664 10.996C19.3376 10.7822 19.8057 10.5625 20.2799 10.3547C21.6362 9.76013 21.8544 9.77669 23.146 10.5399C23.7857 10.9177 24.1034 11.5635 23.9649 12.286C23.8444 12.9107 23.4425 13.3322 22.8735 13.5791C19.6732 14.964 16.47 16.3398 13.2682 17.7187C12.4448 18.0724 11.6169 18.089 10.7904 17.7337C7.84005 16.4663 4.88966 15.1988 1.94076 13.9253C1.35972 13.6754 0.739532 13.4978 0.328584 12.9499C-0.220852 12.2183 -0.0477421 11.0743 0.744048 10.6151C1.22876 10.3352 1.75561 10.1259 2.27193 9.90765C2.38633 9.85948 2.55493 9.86099 2.66933 9.90765C3.46263 10.2448 4.2499 10.5986 5.03717 10.9493C5.06728 10.9629 5.08685 11.0005 5.17115 11.0908H5.16964Z" fill="black"/>
<path d="M5.27499 17.0669C4.51331 17.386 3.8585 17.6615 3.14197 17.9625C3.28498 18.0559 3.3753 18.1341 3.48067 18.1793C6.18871 19.3459 8.89675 20.5185 11.6153 21.6611C11.8471 21.7589 12.1964 21.7424 12.4342 21.6415C15.1182 20.5125 17.7916 19.358 20.4665 18.2079C20.5884 18.1552 20.6983 18.0784 20.8805 17.9746C20.1534 17.669 19.4941 17.3905 18.7354 17.0714C19.2186 16.8516 19.6175 16.671 20.0164 16.4903C20.1068 16.4497 20.2106 16.4241 20.2889 16.3669C21.326 15.5947 22.2729 16.0237 23.2062 16.5852C24.1771 17.1692 24.2915 18.6083 23.3597 19.2511C22.7711 19.6575 22.0817 19.9239 21.4209 20.2115C18.7746 21.3645 16.1162 22.492 13.4699 23.6466C12.4959 24.0711 11.5506 24.0891 10.5691 23.6616C7.4637 22.3099 4.34923 20.9807 1.23927 19.6379C0.0305101 19.1156 -0.357858 17.9821 0.361677 16.9961C0.548335 16.7402 0.879502 16.5852 1.15196 16.397C2.00848 15.8084 2.85747 15.816 3.7456 16.3729C4.18515 16.6484 4.69545 16.8095 5.27348 17.0669H5.27499Z" fill="black"/>
</svg>
