<svg width="24" height="21" viewBox="0 0 24 21" fill="none" xmlns="http://www.w3.org/2000/svg">
<path d="M0 3C0 1.34531 1.34531 0 3 0H9.19219C10.0875 0 10.9453 0.35625 11.5781 0.989062L13.5891 3H21C22.6547 3 24 4.34531 24 6V18C24 19.6547 22.6547 21 21 21H3C1.34531 21 0 19.6547 0 18V3ZM3 2.25C2.5875 2.25 2.25 2.5875 2.25 3V18C2.25 18.4125 2.5875 18.75 3 18.75H21C21.4125 18.75 21.75 18.4125 21.75 18V6C21.75 5.5875 21.4125 5.25 21 5.25H13.4344C12.9375 5.25 12.4594 5.05313 12.1078 4.70156L9.98906 2.57812C9.77813 2.36719 9.49219 2.25 9.19219 2.25H3Z" fill="black"/>
</svg>
