<svg width="24" height="23" viewBox="0 0 24 23" fill="none" xmlns="http://www.w3.org/2000/svg">
<path d="M2.572 3.28571V19.7143C2.572 20.1661 2.9578 20.5357 3.42934 20.5357H20.576C21.0476 20.5357 21.4334 20.1661 21.4334 19.7143V7.11049C21.4334 6.89487 21.3423 6.68438 21.1815 6.53036L22.998 4.78996C23.641 5.40603 24 6.24286 24 7.11563V19.7143C24 21.5266 22.4622 23 20.5707 23H3.42934C1.53784 23 0 21.5266 0 19.7143V3.28571C0 1.47344 1.53784 0 3.42934 0H16.5841C17.495 0 18.3684 0.343973 19.0114 0.960045L23.0033 4.78482L21.1869 6.52522L17.1896 2.70558C17.1735 2.69018 17.1628 2.67991 17.1467 2.66451V7.80357C17.1467 8.48638 16.5733 9.03571 15.8607 9.03571H5.57267C4.86001 9.03571 4.28667 8.48638 4.28667 7.80357V2.46429H3.42934C2.9578 2.46429 2.572 2.83393 2.572 3.28571ZM6.85867 2.46429V6.57143H14.5747V2.46429H6.85867ZM8.57334 14.7857C8.57334 13.9143 8.93465 13.0786 9.57777 12.4624C10.2209 11.8462 11.0932 11.5 12.0027 11.5C12.9122 11.5 13.7845 11.8462 14.4276 12.4624C15.0707 13.0786 15.432 13.9143 15.432 14.7857C15.432 15.6571 15.0707 16.4929 14.4276 17.1091C13.7845 17.7253 12.9122 18.0714 12.0027 18.0714C11.0932 18.0714 10.2209 17.7253 9.57777 17.1091C8.93465 16.4929 8.57334 15.6571 8.57334 14.7857Z" fill="black"/>
</svg>
