<svg width="41" height="42" viewBox="0 0 41 42" fill="black" xmlns="http://www.w3.org/2000/svg">
<path d="M0.612725 14.7312C0.612725 11.8805 0.605137 9.03229 0.615254 6.18157C0.625372 3.64561 1.87992 1.79505 4.14115 1.05127C4.75073 0.850729 5.41847 0.749194 6.05839 0.746656C11.6938 0.723809 17.3317 0.718733 22.967 0.739041C26.0655 0.749195 28.3621 2.93737 28.3191 6.05717C28.3014 7.40765 28.2913 8.76067 28.3292 10.1086C28.3444 10.6798 28.1901 10.8752 27.5932 10.8702C24.5428 10.8422 21.495 10.8422 18.4446 10.8625C15.8798 10.8803 13.7375 11.8145 12.1668 13.9087C11.0589 15.3861 10.6719 17.092 10.6643 18.9019C10.6542 21.8771 10.6466 24.8547 10.6719 27.8298C10.677 28.4213 10.5303 28.6548 9.90046 28.6345C8.61809 28.5914 7.33318 28.6624 6.05334 28.6117C3.02572 28.4924 0.564667 26.5733 0.605137 23.1488C0.638018 20.3413 0.612725 17.5337 0.612725 14.7261V14.7312Z"/>
<path d="M13.2721 27.3297C13.2721 24.479 13.2924 21.6308 13.2671 18.7801C13.2393 15.5638 15.5839 13.4747 18.475 13.4544C24.2368 13.4137 29.9987 13.4137 35.763 13.4544C38.8008 13.4747 40.9456 15.6958 40.9532 18.7446C40.9684 24.4866 40.9709 30.2287 40.9532 35.9682C40.9431 39.0906 38.7679 41.2381 35.6441 41.2432C29.9658 41.2508 24.2874 41.2229 18.609 41.2534C15.589 41.2711 13.219 39.0423 13.2671 35.9428C13.3101 33.0718 13.2772 30.2008 13.2772 27.3297H13.2721ZM27.0545 36.2322C29.7887 36.2322 32.5229 36.2145 35.2572 36.2449C35.8541 36.2525 36.0109 36.0469 36.0109 35.4808C35.9957 30.0764 36.0033 24.6745 36.0008 19.27C36.0008 18.4983 35.9553 18.4603 35.1661 18.4603C29.7837 18.4603 24.3987 18.4679 19.0163 18.4476C18.3966 18.4476 18.2372 18.6481 18.2398 19.2472C18.26 24.6923 18.26 30.1399 18.2398 35.5849C18.2398 36.1459 18.4244 36.2475 18.9227 36.2424C21.6367 36.2221 24.3481 36.2322 27.0621 36.2322H27.0545Z"/>
</svg>
