<svg width="51" height="42" viewBox="0 0 51 42" fill="black" xmlns="http://www.w3.org/2000/svg">
<path d="M13.12 23.6004C14.3416 23.542 15.4824 23.5471 16.6079 23.4227C20.1085 23.0394 22.9338 20.1074 23.1058 16.5865C23.2272 14.142 23.1766 11.6898 23.2044 9.24267C23.207 8.97105 23.2044 8.69943 23.2044 8.33897H23.9278C26.8998 8.33897 29.8718 8.33897 32.8438 8.33897C36.1066 8.3415 38.2894 10.5043 38.3122 13.7561C38.3223 15.2919 38.3122 16.8302 38.3122 18.4422C37.5332 18.4422 36.8249 18.4422 36.1142 18.4422C33.6683 18.4472 31.5892 19.2596 29.9755 21.1685C28.683 22.6992 28.2024 24.4888 28.1948 26.4435C28.1872 28.5758 28.1948 30.7107 28.1948 32.843C28.1948 33.0893 28.1948 33.3355 28.1948 33.6147C27.9748 33.63 27.8331 33.6477 27.6915 33.6477C24.5728 33.6477 21.4516 33.6655 18.3329 33.6426C16.6206 33.63 15.1662 32.9979 14.1064 31.6093C13.5221 30.8427 13.1377 29.9669 13.125 28.9871C13.1023 27.1974 13.12 25.4078 13.12 23.6029V23.6004Z"/>
<path d="M0.475802 10.8546C0.475802 8.99643 0.42522 7.13825 0.488453 5.28262C0.559275 3.18328 2.51192 1.11441 4.60369 0.855488C5.35237 0.761564 6.1137 0.738717 6.86997 0.736179C9.67248 0.723486 12.475 0.723491 15.28 0.733645C17.7664 0.743799 19.6937 2.14505 20.3868 4.47792C20.5411 4.99577 20.5942 5.55932 20.5967 6.10255C20.6169 9.27059 20.6195 12.4361 20.6018 15.6041C20.5891 18.2137 19.1879 20.1023 16.7774 20.7674C16.2968 20.8994 15.7808 20.9603 15.2826 20.9654C12.1007 20.9832 8.91874 20.9832 5.73683 20.9705C3.17967 20.9603 1.30037 19.554 0.602269 17.1069C0.460626 16.6094 0.45051 16.0661 0.445451 15.5432C0.425216 13.982 0.437863 12.4183 0.437863 10.8546C0.45051 10.8546 0.463155 10.8546 0.475802 10.8546ZM15.533 15.9164V5.81316H5.48137V15.9164H15.533Z"/>
<path d="M30.795 31.1042C30.795 29.4795 30.8102 27.8524 30.7925 26.2277C30.7571 23.2577 33.0638 21.034 35.9928 21.0137C39.2582 20.9908 42.5261 20.9781 45.7915 21.0187C48.6572 21.0543 50.8426 23.1028 50.926 25.9663C51.0247 29.4059 51.0247 32.8506 50.926 36.2878C50.8451 39.1639 48.6775 41.2023 45.8016 41.2403C42.5135 41.2835 39.2253 41.286 35.9397 41.2403C33.0183 41.1997 30.7824 39.042 30.795 36.0466C30.8026 34.3991 30.795 32.7516 30.795 31.1067V31.1042ZM35.8284 36.1786H45.9306V26.0754H35.8284V36.1786Z"/>
</svg>
