<svg width="41" height="42" viewBox="0 0 41 42" fill="black" xmlns="http://www.w3.org/2000/svg">
<path d="M27.7115 14.7509C27.7115 17.5585 27.671 20.3661 27.7241 23.1736C27.7874 26.5625 25.3466 28.5578 22.3341 28.6009C16.6988 28.6796 11.0609 28.6745 5.42548 28.6009C2.41557 28.5628 -0.0125975 26.5777 4.91776e-05 23.1939C0.0228132 17.5153 -0.0050095 11.8393 0.0101665 6.16066C0.0202839 2.94185 2.20816 0.746059 5.40778 0.738443C11.0659 0.725751 16.7215 0.718135 22.3796 0.740982C25.4705 0.753674 27.7317 2.93931 27.714 6.01343C27.6963 8.92508 27.7115 11.8393 27.7115 14.7509Z"/>
<path d="M40.3481 27.3543C40.3481 30.2253 40.3607 33.0989 40.3455 35.9699C40.3329 38.5034 38.9898 40.3133 36.5794 41.0342C36.0861 41.1815 35.5449 41.2297 35.0263 41.2322C29.3454 41.2449 23.6646 41.2424 17.9837 41.2373C15.3961 41.2373 13.5674 39.8894 12.8339 37.4194C12.7049 36.9828 12.6822 36.503 12.6771 36.0436C12.6569 34.6068 12.6822 33.1725 12.6594 31.7357C12.6518 31.289 12.7985 31.1494 13.2411 31.1671C14.0809 31.2001 14.9257 31.2001 15.7654 31.1671C16.2359 31.1494 16.4003 31.3093 16.3927 31.7789C16.3725 33.0888 16.3851 34.3986 16.3876 35.7059C16.3876 37.1173 16.7468 37.4829 18.1228 37.4829C23.7404 37.4829 29.3581 37.4829 34.9758 37.4829C36.1974 37.4829 36.6502 37.0539 36.6527 35.8049C36.6628 30.167 36.6628 24.529 36.6527 18.891C36.6527 17.6344 36.1696 17.175 34.9277 17.1699C33.6023 17.1673 32.277 17.1521 30.9516 17.1775C30.5014 17.1851 30.294 17.0709 30.3066 16.5835C30.3319 15.7179 30.3142 14.8522 30.3142 13.9866C30.3142 13.6972 30.3319 13.4231 30.7341 13.4307C32.3958 13.4535 34.0677 13.3571 35.7143 13.517C38.5396 13.7912 40.3329 15.8803 40.3506 18.7336C40.3658 21.6046 40.3531 24.4782 40.3531 27.3492L40.3481 27.3543Z"/>
</svg>
