<svg width="51" height="42" viewBox="0 0 51 42" fill="black" xmlns="http://www.w3.org/2000/svg">
<path d="M38.0138 21.0447C38.0138 23.4512 38.0239 25.8603 38.0112 28.2667C37.9961 30.8814 36.61 32.77 34.2021 33.4377C33.7038 33.5773 33.1676 33.6382 32.6465 33.6382C27.8281 33.6534 23.0122 33.6509 18.1939 33.6458C15.581 33.6433 13.7195 32.2623 12.991 29.7949C12.9075 29.5157 12.8671 29.2161 12.8671 28.9242C12.8569 23.6873 12.814 18.4504 12.8696 13.216C12.8949 10.9085 14.3973 9.13414 16.6155 8.54267C17.1366 8.40305 17.693 8.34721 18.2343 8.34467C23.03 8.32944 27.8281 8.33198 32.6237 8.33705C35.793 8.34213 37.9733 10.5151 38.0138 13.6958C38.0138 13.739 38.0138 13.7796 38.0138 13.8227C38.0138 16.2292 38.0138 18.6382 38.0138 21.0447Z"/>
<path d="M10.2087 17.2065V20.8696C10.148 20.9102 10.1151 20.9534 10.0797 20.9534C8.21054 20.928 6.33377 20.994 4.47471 20.8417C2.23118 20.6614 0.29624 18.5926 0.255771 16.346C0.192538 12.6728 0.195067 8.9996 0.255771 5.3264C0.291182 3.17122 2.25648 1.11251 4.38366 0.85612C5.15257 0.762196 5.93414 0.741888 6.71064 0.736811C9.48786 0.724119 12.2651 0.72158 15.0423 0.736811C17.516 0.746965 19.4307 2.16598 20.1313 4.49886C20.2451 4.87709 20.2704 5.27817 20.3539 5.76556C19.1297 5.76556 17.9789 5.77318 16.8305 5.75033C16.7268 5.75033 16.5776 5.55994 16.5346 5.43048C16.3145 4.77555 15.8517 4.50393 15.1915 4.50393C11.9084 4.50393 8.62788 4.49632 5.3448 4.50901C4.38618 4.51155 3.95872 4.95578 3.9309 5.9788C3.90308 7.09827 3.92331 8.21775 3.92331 9.33722C3.92331 11.3858 3.91826 13.4343 3.92331 15.4829C3.92837 16.8232 4.32295 17.2116 5.65844 17.2116C7.14822 17.2116 8.638 17.2116 10.2062 17.2116L10.2087 17.2065Z" fill="black"/>
<path d="M40.6443 24.7763V20.8924C42.7968 21.0168 44.9366 20.9432 46.998 21.3164C49.0771 21.6921 50.5315 23.6289 50.5846 25.7587C50.6681 29.2821 50.6959 32.8132 50.5947 36.3366C50.5138 39.1975 48.3107 41.2181 45.4374 41.2435C42.1973 41.274 38.9572 41.2689 35.7171 41.2435C33.2536 41.2257 31.4223 39.8423 30.6939 37.4916C30.5775 37.1185 30.5598 36.7123 30.4814 36.2198C31.7107 36.2198 32.859 36.2122 34.0048 36.2351C34.106 36.2351 34.2552 36.428 34.2931 36.5549C34.4854 37.1997 34.9356 37.4764 35.5654 37.4789C38.9117 37.484 42.2555 37.4891 45.6018 37.4738C46.3201 37.4713 46.7198 37.0905 46.8538 36.3798C46.8994 36.1335 46.9171 35.8771 46.9171 35.6258C46.9221 32.6279 46.9221 29.6274 46.9171 26.6294C46.9171 25.185 46.5098 24.7763 45.0934 24.7763C43.6264 24.7763 42.1568 24.7763 40.6418 24.7763H40.6443Z"/>
</svg>
