<svg width="31" height="21" viewBox="0 0 31 21" fill="none" xmlns="http://www.w3.org/2000/svg">
<path d="M15.3428 20.9205C12.5734 20.9205 9.80398 20.9295 7.03458 20.916C5.58252 20.9085 4.22776 20.5388 3.01222 19.7155C1.62452 18.7769 0.750291 17.473 0.347605 15.8697C-0.210765 13.6422 0.263774 11.6213 1.71284 9.83993C2.34457 9.06301 3.13197 8.46272 4.05561 8.08698C4.49721 7.90734 4.63942 7.65884 4.66487 7.21125C4.73523 5.91787 5.13492 4.71879 5.83101 3.62451C7.06452 1.68443 8.83244 0.521283 11.0854 0.13207C13.8144 -0.339476 16.1586 0.45841 18.1032 2.41795C18.3442 2.66046 18.5268 2.65597 18.8128 2.55118C22.0522 1.37456 25.6554 3.48978 26.1928 6.8894C26.2707 7.37741 26.2662 7.88339 26.2512 8.38039C26.2437 8.64385 26.3081 8.78607 26.5446 8.90582C27.7257 9.50461 28.6269 10.4043 29.2377 11.5734C30.0984 13.2201 30.2811 14.9521 29.6448 16.708C28.7631 19.1406 26.9548 20.4609 24.4324 20.8487C24.1135 20.8981 23.7887 20.9145 23.4653 20.916C20.7588 20.9205 18.0508 20.919 15.3443 20.919L15.3428 20.9205ZM15.2739 18.6945C18.0927 18.6945 20.91 18.6975 23.7288 18.6945C25.3351 18.6915 26.9638 17.5628 27.5102 16.0898C28.2601 14.0689 27.5132 12.024 25.6375 10.9507C25.368 10.7965 25.0836 10.6558 24.8411 10.4642C24.2183 9.97167 23.9474 9.3115 24.0237 8.5211C24.0956 7.77711 24.0596 7.04209 23.7258 6.36396C22.9369 4.7637 21.1989 4.07809 19.4939 4.6634C18.8741 4.87597 18.2214 5.07507 17.6077 4.74574C17.1451 4.49724 16.7185 4.14994 16.3442 3.7772C14.9131 2.35058 12.3788 1.78772 10.5076 2.54818C8.26509 3.45834 7.00464 5.12747 6.84446 7.54957C6.76213 8.79505 6.2307 9.63635 5.06007 10.0899C4.36398 10.3594 3.79214 10.807 3.31011 11.3893C1.83559 13.1737 2.07062 16.0209 3.81309 17.5434C4.73673 18.3502 5.80856 18.69 7.00764 18.693C9.76356 18.6975 12.5195 18.693 15.2754 18.693L15.2739 18.6945Z" fill="black"/>
<path d="M13.9506 10.1812C13.3742 10.7486 12.8578 11.262 12.3323 11.768C12.1811 11.9132 12.0195 12.0584 11.8368 12.1602C11.4042 12.4027 10.8264 12.2935 10.5015 11.9342C10.1632 11.5614 10.1318 11.0225 10.4297 10.5899C10.5135 10.4672 10.6138 10.3549 10.7186 10.2486C11.8458 9.11838 12.9745 7.98967 14.1033 6.86095C14.7814 6.18282 15.3562 6.18132 16.0329 6.85646C17.172 7.99266 18.3082 9.13185 19.4459 10.2696C19.7708 10.5944 19.9819 10.9597 19.8696 11.4402C19.6989 12.1767 18.9085 12.533 18.2678 12.1333C17.9879 11.9581 17.7514 11.7052 17.5149 11.4686C17.0957 11.0495 16.6915 10.6169 16.2799 10.1902C16.2454 10.2082 16.2095 10.2276 16.1751 10.2456C16.1751 10.3758 16.1751 10.5076 16.1751 10.6378C16.1751 12.509 16.1766 14.3802 16.1751 16.2515C16.1751 16.8862 15.9086 17.3083 15.4311 17.4685C14.6287 17.7365 13.9566 17.1931 13.9536 16.2559C13.9461 14.3847 13.9521 12.5135 13.9521 10.6423C13.9521 10.5106 13.9521 10.3803 13.9521 10.1812H13.9506Z" fill="black"/>
</svg>
