<svg width="57" height="46" viewBox="0 0 57 46" fill="none" xmlns="http://www.w3.org/2000/svg">
<rect width="57" height="46" rx="8" fill="#D9D9D9"/>
<g clip-path="url(#clip0_8_148)">
<path d="M29.5 23C31.2429 23 32.9143 22.3152 34.1467 21.0962C35.3791 19.8772 36.0714 18.2239 36.0714 16.5C36.0714 14.7761 35.3791 13.1228 34.1467 11.9038C32.9143 10.6848 31.2429 10 29.5 10C27.7571 10 26.0857 10.6848 24.8533 11.9038C23.6209 13.1228 22.9286 14.7761 22.9286 16.5C22.9286 18.2239 23.6209 19.8772 24.8533 21.0962C26.0857 22.3152 27.7571 23 29.5 23ZM27.1538 25.4375C22.0969 25.4375 18 29.4898 18 34.4918C18 35.3246 18.6828 36 19.5248 36H39.4752C40.3172 36 41 35.3246 41 34.4918C41 29.4898 36.9031 25.4375 31.8462 25.4375H27.1538Z" fill="#F47B39"/>
</g>
<defs>
<clipPath id="clip0_8_148">
<rect width="23" height="26" fill="white" transform="translate(18 10)"/>
</clipPath>
</defs>
</svg>
